<svg xmlns="http://www.w3.org/2000/svg" viewBox="0 0 48 48"><title>plan&amp;simple – Ladezeichen</title><g><animate attributeName="opacity" values="1;1;0" keyTimes="0;0.88;1" dur="2.6s" repeatCount="indefinite"></animate><path d="M34.56 28.5L28.94 37.49C26.98 40.62 23.41 42.35 19.74 41.94C16.07 41.53 12.96 39.06 11.74 35.57C10.52 32.09 11.41 28.21 14.02 25.6L23.07 16.58C25.36 14.29 25.38 10.59 23.12 8.28C20.87 5.97 17.17 5.9 14.83 8.13C12.49 10.36 12.38 14.06 14.59 16.42L34.33 37.59" fill="none" stroke="rgba(255,255,255,0.22)" stroke-width="5.4" stroke-linecap="round" stroke-linejoin="round"></path><circle cx="34.56" cy="28.5" r="2.7" fill="#FFFFFF"></circle><path d="M34.56 28.5L28.94 37.49C26.98 40.62 23.41 42.35 19.74 41.94C16.07 41.53 12.96 39.06 11.74 35.57C10.52 32.09 11.41 28.21 14.02 25.6L23.07 16.58C25.36 14.29 25.38 10.59 23.12 8.28C20.87 5.97 17.17 5.9 14.83 8.13C12.49 10.36 12.38 14.06 14.59 16.42L34.33 37.59" fill="none" stroke="#FFFFFF" stroke-width="5.4" stroke-linecap="butt" stroke-linejoin="round" stroke-dasharray="112.78" stroke-dashoffset="112.78"><animate attributeName="stroke-dashoffset" values="112.78;0;0" keyTimes="0;0.72;1" dur="2.6s" repeatCount="indefinite"></animate></path><g><path d="M0 -2.7L9.99 0L0 2.7Z" fill="#8C9BE6" stroke="#8C9BE6" stroke-width="0.4" stroke-linejoin="round"></path><path d="M-0.3 -2.7L0 -2.7Q2 -1.8 0 -0.9Q2 0 0 0.9Q2 1.8 0 2.7L-0.3 2.7Z" fill="#FFFFFF"></path><path d="M6.39 -0.97L9.99 0L6.39 0.97Z" fill="#FFFFFF" stroke="#FFFFFF" stroke-width="0.4" stroke-linejoin="round"></path><animateMotion dur="2.6s" repeatCount="indefinite" rotate="auto" keyPoints="0;1;1" keyTimes="0;0.72;1" calcMode="linear" path="M34.56 28.5L28.94 37.49C26.98 40.62 23.41 42.35 19.74 41.94C16.07 41.53 12.96 39.06 11.74 35.57C10.52 32.09 11.41 28.21 14.02 25.6L23.07 16.58C25.36 14.29 25.38 10.59 23.12 8.28C20.87 5.97 17.17 5.9 14.83 8.13C12.49 10.36 12.38 14.06 14.59 16.42L34.33 37.59"></animateMotion></g></g></svg>
